<?xml version="1.0" encoding="utf-8"?>
<!-- Generator: Adobe Illustrator 24.0.0, SVG Export Plug-In . SVG Version: 6.00 Build 0)  -->
<svg version="1.1" id="Layer_1" xmlns="http://www.w3.org/2000/svg" xmlns:xlink="http://www.w3.org/1999/xlink" x="0px" y="0px"
	 viewBox="0 0 41.6 41.6" style="enable-background:new 0 0 41.6 41.6;" xml:space="preserve">
<style type="text/css">
	.st0{fill:#666666;}
	.st1{fill:#FFFFFF;}
</style>
<path class="st0" d="M30.9,21.7c0,4-2.3,3.3-4.5,2.6c-1.3-0.4-2.5-0.8-3.1-0.1c-0.8,0.9-0.6,2.3-0.4,3.7c0.2,2,0.4,3.9-2.1,3.9
	c-5.6,0-10.1-4.5-10.1-10.1s4.5-10.1,10.1-10.1S30.9,16.1,30.9,21.7z"/>
<path class="st1" d="M20.9,30.7c-4.9,0-9-4-9-9s4-9,9-9c4.9,0,9,4,9,9c0,2-0.6,2-1,2c-0.6,0-1.3-0.2-2.1-0.5
	c-0.9-0.3-1.7-0.5-2.4-0.5c-0.8,0-1.4,0.2-1.8,0.7c-1.1,1.2-0.9,3-0.7,4.5c0.1,0.9,0.2,2.1-0.1,2.4C21.6,30.6,21.3,30.7,20.9,30.7z"
	/>
<path class="st0" d="M17.8,27.3c0.7,0,1.3-0.6,1.3-1.3c0-0.7-0.6-1.3-1.3-1.3c-0.7,0-1.3,0.6-1.3,1.3C16.5,26.8,17.1,27.3,17.8,27.3
	z"/>
<path class="st0" d="M15.7,23c0.7,0,1.3-0.6,1.3-1.3s-0.6-1.3-1.3-1.3c-0.7,0-1.3,0.6-1.3,1.3S15,23,15.7,23z"/>
<path class="st0" d="M17.3,18.7c0.7,0,1.3-0.6,1.3-1.3s-0.6-1.3-1.3-1.3c-0.7,0-1.3,0.6-1.3,1.3S16.5,18.7,17.3,18.7z"/>
<path class="st0" d="M22.2,17.3c0.7,0,1.3-0.6,1.3-1.3c0-0.7-0.6-1.3-1.3-1.3c-0.7,0-1.3,0.6-1.3,1.3C20.9,16.8,21.5,17.3,22.2,17.3
	z"/>
<path class="st0" d="M25.7,20.6c0.7,0,1.3-0.6,1.3-1.3s-0.6-1.3-1.3-1.3c-0.7,0-1.3,0.6-1.3,1.3S25,20.6,25.7,20.6z"/>
</svg>
