<?xml version="1.0" encoding="utf-8"?>
<!-- Generator: Adobe Illustrator 24.0.0, SVG Export Plug-In . SVG Version: 6.00 Build 0)  -->
<svg version="1.1" id="Layer_1" xmlns="http://www.w3.org/2000/svg" xmlns:xlink="http://www.w3.org/1999/xlink" x="0px" y="0px"
	 viewBox="0 0 44.3 44.3" style="enable-background:new 0 0 44.3 44.3;" xml:space="preserve">
<style type="text/css">
	.st0{fill:#666666;}
	.st1{fill:#FFFFFF;}
</style>
<g>
	<path class="st0" d="M34,22.1c0,4.7-2.7,3.9-5.3,3c-1.5-0.5-2.9-0.9-3.6-0.1c-0.9,1.1-0.7,2.7-0.5,4.3c0.2,2.3,0.5,4.6-2.5,4.6
		c-6.6,0-11.8-5.3-11.8-11.8s5.3-11.8,11.8-11.8S34,15.6,34,22.1z"/>
	<path class="st1" d="M22.2,32.7c-5.7,0-10.5-4.7-10.5-10.5s4.7-10.5,10.5-10.5c5.7,0,10.5,4.7,10.5,10.5c0,2.3-0.7,2.3-1.2,2.3
		c-0.7,0-1.5-0.2-2.5-0.6c-1.1-0.4-2-0.6-2.8-0.6c-0.9,0-1.6,0.2-2.1,0.8c-1.3,1.4-1.1,3.5-0.8,5.3c0.1,1.1,0.2,2.5-0.1,2.8
		C23.1,32.6,22.7,32.7,22.2,32.7z"/>
	<path class="st0" d="M18.6,28.7c0.8,0,1.5-0.7,1.5-1.5c0-0.8-0.7-1.5-1.5-1.5c-0.8,0-1.5,0.7-1.5,1.5
		C17.1,28.1,17.8,28.7,18.6,28.7z"/>
	<path class="st0" d="M16.2,23.7c0.8,0,1.5-0.7,1.5-1.5s-0.7-1.5-1.5-1.5c-0.8,0-1.5,0.7-1.5,1.5S15.3,23.7,16.2,23.7z"/>
	<path class="st0" d="M18,18.6c0.8,0,1.5-0.7,1.5-1.5s-0.7-1.5-1.5-1.5c-0.8,0-1.5,0.7-1.5,1.5S17.1,18.6,18,18.6z"/>
	<path class="st0" d="M23.8,17c0.8,0,1.5-0.7,1.5-1.5s-0.7-1.5-1.5-1.5c-0.8,0-1.5,0.7-1.5,1.5C22.2,16.4,22.9,17,23.8,17z"/>
	<path class="st0" d="M27.9,20.8c0.8,0,1.5-0.7,1.5-1.5s-0.7-1.5-1.5-1.5c-0.8,0-1.5,0.7-1.5,1.5S27,20.8,27.9,20.8z"/>
</g>
</svg>
